<?xml version="1.0" standalone="no"?>
<!DOCTYPE svg PUBLIC "-//W3C//DTD SVG 20010904//EN"
 "http://www.w3.org/TR/2001/REC-SVG-20010904/DTD/svg10.dtd">
<svg version="1.0" xmlns="http://www.w3.org/2000/svg"
 width="512.000000pt" height="512.000000pt" viewBox="0 0 512.000000 512.000000"
 preserveAspectRatio="xMidYMid meet">
<metadata>
Created by potrace 1.16, written by Peter Selinger 2001-2019
</metadata>
<g transform="translate(0.000000,512.000000) scale(0.100000,-0.100000)"
fill="#FFDB6E" stroke="none">
<path d="M334 4836 c-65 -30 -120 -85 -150 -150 l-24 -51 0 -1487 0 -1488 -54
0 c-44 0 -58 -4 -80 -26 -26 -27 -26 -27 -26 -188 0 -148 2 -165 24 -212 30
-65 85 -120 150 -150 l51 -24 1318 0 1317 0 0 -287 c0 -282 1 -289 24 -339 30
-65 85 -120 150 -150 l51 -24 675 0 675 0 51 24 c65 30 120 85 150 150 23 50
24 57 24 339 l0 287 118 0 c102 0 123 3 168 24 65 30 120 85 150 150 22 47 24
64 24 212 0 161 0 161 -26 188 -22 22 -36 26 -80 26 l-54 0 0 1488 0 1487 -24
51 c-30 65 -85 120 -150 150 -49 23 -61 24 -262 24 l-211 0 -27 -26 c-37 -38
-37 -110 0 -148 27 -26 27 -26 189 -26 89 0 176 -3 194 -6 36 -8 81 -49 81
-75 0 -18 -60 -19 -2190 -19 -2130 0 -2190 1 -2190 19 0 26 45 67 81 75 18 3
759 6 1649 6 l1617 0 27 26 c37 38 37 110 0 148 l-27 26 -1666 0 -1666 0 -51
-24z m4426 -576 l0 -100 -1486 0 -1487 0 -102 -100 -101 -100 -612 0 -612 0 0
200 0 200 2200 0 2200 0 0 -100z m0 -1300 l0 -1000 -50 0 -50 0 0 538 0 537
-24 51 c-30 65 -85 120 -150 150 l-51 24 -675 0 -675 0 -51 -24 c-65 -30 -120
-85 -150 -150 l-24 -51 0 -537 0 -538 -1250 0 -1250 0 0 900 0 900 661 0 660
0 102 100 102 100 1438 0 1437 0 0 -1000z m-391 94 c36 -8 81 -49 81 -75 0
-18 -23 -19 -690 -19 -667 0 -690 1 -690 19 0 23 45 68 73 74 35 7 1192 8
1226 1z m91 -1294 l0 -1000 -700 0 -700 0 0 1000 0 1000 700 0 700 0 0 -1000z
m-1600 -85 l0 -85 -363 0 -362 0 -49 35 -50 35 -416 0 -417 0 -27 -26 c-37
-38 -37 -110 0 -148 l27 -26 375 0 375 0 34 -26 c71 -54 72 -54 488 -54 l385
0 0 -60 0 -60 -1292 2 c-1385 3 -1316 1 -1348 51 -7 12 -15 49 -18 84 l-5 63
205 0 205 0 27 26 c37 38 37 110 0 148 -26 25 -30 26 -150 26 l-124 0 0 50 0
50 1250 0 1250 0 0 -85z m2058 -278 c-9 -109 -34 -129 -165 -135 l-93 -4 0
101 0 101 131 0 132 0 -5 -63z m-468 -856 c0 -26 -45 -67 -81 -75 -41 -8
-1177 -8 -1218 0 -36 8 -81 49 -81 75 0 18 23 19 690 19 667 0 690 -1 690 -19z"/>
<path d="M535 4236 c-45 -45 -45 -107 0 -152 19 -18 35 -24 70 -24 64 0 105
39 105 100 0 61 -41 100 -105 100 -35 0 -51 -6 -70 -24z"/>
<path d="M935 4236 c-45 -45 -45 -107 0 -152 19 -18 35 -24 70 -24 64 0 105
39 105 100 0 61 -41 100 -105 100 -35 0 -51 -6 -70 -24z"/>
<path d="M1335 4236 c-45 -45 -45 -107 0 -152 19 -18 35 -24 70 -24 64 0 105
39 105 100 0 61 -41 100 -105 100 -35 0 -51 -6 -70 -24z"/>
<path d="M1163 3308 c-86 -84 -169 -171 -184 -192 -40 -54 -40 -107 0 -147
l29 -29 600 0 600 0 31 31 c42 42 43 95 2 141 l-29 33 -447 3 -447 3 76 79
c73 77 76 81 76 129 0 68 -33 101 -103 101 l-49 0 -155 -152z"/>
<path d="M981 2749 c-42 -42 -43 -95 -2 -141 l29 -33 447 -3 447 -3 -76 -79
c-73 -77 -76 -81 -76 -129 0 -68 33 -101 103 -101 l49 0 155 153 c86 83 169
170 184 191 40 54 40 107 0 147 l-29 29 -600 0 -600 0 -31 -31z"/>
<path d="M3854 1888 l-253 -252 -94 91 c-56 54 -104 92 -120 95 -41 8 -74 -2
-102 -29 -20 -21 -25 -36 -25 -75 l0 -50 128 -130 c70 -71 139 -136 154 -144
15 -8 46 -14 70 -14 42 0 43 0 345 303 l303 303 0 50 c0 72 -32 104 -103 104
l-50 0 -253 -252z"/>
<path d="M886 1634 c-37 -38 -37 -110 0 -148 37 -37 110 -37 147 -1 43 44 43
106 0 150 -37 36 -110 36 -147 -1z"/>
<path d="M3887 4835 c-27 -28 -37 -61 -29 -100 14 -73 121 -103 176 -49 21 21
26 36 26 74 0 38 -5 53 -26 74 -37 37 -110 37 -147 1z"/>
</g>
</svg>
