<?xml version="1.0" standalone="no"?>
<!DOCTYPE svg PUBLIC "-//W3C//DTD SVG 20010904//EN"
 "http://www.w3.org/TR/2001/REC-SVG-20010904/DTD/svg10.dtd">
<svg version="1.0" xmlns="http://www.w3.org/2000/svg"
 width="242.000000pt" height="200.000000pt" viewBox="0 0 242.000000 200.000000"
 preserveAspectRatio="xMidYMid meet">
<metadata>
Created by potrace 1.16, written by Peter Selinger 2001-2019
</metadata>
<g transform="translate(0.000000,200.000000) scale(0.100000,-0.100000)"
fill="#FFDB6E" stroke="none">
<path d="M381 1974 c-19 -25 -21 -40 -21 -205 0 -164 -2 -179 -17 -180 -61 -2
-91 -12 -118 -39 l-30 -30 -5 -628 -5 -627 -90 -5 c-83 -5 -90 -7 -93 -27 -7
-51 71 -145 160 -194 l63 -34 966 -3 c955 -2 968 -2 1022 18 30 11 73 34 95
50 47 34 100 106 108 149 7 36 -2 40 -111 43 l-70 3 -5 628 -5 629 -32 28
c-23 20 -48 31 -83 36 l-50 7 0 117 c0 65 -3 126 -6 135 -17 44 -34 45 -591
45 l-529 0 -39 41 c-66 68 -71 69 -294 69 l-200 0 -20 -26z m465 -104 c29 -27
54 -51 56 -52 2 -2 246 -5 543 -8 l540 -5 0 -43 c1 -23 -2 -47 -5 -52 -4 -7
-280 -9 -776 -8 l-769 3 4 105 c2 58 5 107 6 110 2 3 81 4 175 3 l172 -2 54
-51z m1141 -880 c2 -343 5 -630 7 -637 7 -16 38 -17 54 -1 9 9 12 153 12 585
l0 573 40 0 c34 0 42 -4 50 -25 6 -16 9 -257 7 -623 l-2 -597 -945 0 -945 0
-3 603 c-1 404 1 609 8 623 8 14 21 19 50 19 l40 0 0 -574 c0 -489 2 -575 15
-586 23 -19 52 -3 59 32 3 18 6 300 6 627 0 328 0 599 0 604 0 4 348 6 773 5
l772 -3 2 -625z m323 -808 c0 -16 -56 -61 -100 -81 -44 -20 -61 -21 -1003 -21
-955 0 -958 0 -1000 21 -43 22 -97 67 -97 81 0 4 495 8 1100 8 605 0 1100 -4
1100 -8z"/>
<path d="M528 1539 c-24 -13 -23 -46 1 -59 11 -5 58 -10 105 -10 75 0 87 2 96
20 8 14 8 26 0 40 -9 18 -21 20 -98 20 -48 0 -95 -5 -104 -11z"/>
<path d="M1696 1535 c-9 -9 -16 -20 -16 -25 0 -5 7 -16 16 -25 24 -24 192 -18
208 8 8 12 8 22 0 35 -16 25 -184 31 -208 7z"/>
<path d="M1103 1490 c-18 -10 -39 -32 -47 -48 -19 -37 -40 -45 -83 -31 -50 16
-92 -3 -158 -72 l-58 -60 7 -70 6 -69 -40 -25 c-53 -34 -70 -70 -70 -152 0
-78 21 -123 70 -151 36 -20 44 -40 33 -84 -14 -54 -4 -85 44 -138 52 -58 89
-80 133 -80 50 0 68 14 66 54 -3 46 -10 52 -38 32 -12 -9 -26 -16 -31 -16 -15
0 -107 92 -107 107 0 8 7 27 16 41 14 25 14 31 -9 81 -19 44 -30 56 -58 65
-34 11 -34 11 -37 79 -3 73 5 94 41 99 16 2 30 20 50 61 27 55 27 60 13 82
-24 36 -20 47 28 98 42 45 77 59 91 37 18 -29 147 18 154 55 6 38 21 45 91 45
70 0 85 -7 91 -45 5 -26 86 -68 119 -61 14 3 37 8 51 11 22 6 33 -1 72 -42 51
-53 54 -62 31 -98 -14 -22 -14 -27 13 -82 18 -37 35 -59 48 -62 38 -6 45 -21
45 -93 l0 -70 -39 -15 c-34 -13 -42 -23 -60 -71 -20 -50 -20 -57 -6 -78 8 -13
15 -30 15 -37 0 -15 -93 -107 -107 -107 -5 0 -19 7 -31 16 -29 20 -38 13 -36
-31 2 -43 15 -55 62 -55 47 0 82 21 137 82 l47 53 -5 68 c-4 46 -2 70 6 77 88
68 92 74 95 158 5 95 -10 130 -68 167 l-39 25 6 69 6 70 -58 60 c-65 69 -109
89 -156 72 -43 -15 -73 -5 -86 29 -18 48 -66 70 -153 70 -57 0 -83 -5 -107
-20z"/>
<path d="M1046 1219 c-154 -97 -182 -338 -57 -481 21 -24 50 -50 65 -57 25
-14 25 -15 28 -149 3 -116 5 -136 21 -146 12 -8 22 -8 35 0 15 10 17 31 20
150 1 76 0 149 -2 160 -3 12 -19 27 -36 34 -16 7 -47 32 -69 55 -90 98 -88
259 3 344 l26 24 0 -116 c0 -108 2 -118 23 -137 20 -19 32 -21 115 -18 122 4
122 5 122 157 l0 114 26 -24 c32 -29 59 -88 69 -146 15 -91 -54 -219 -135
-253 -17 -7 -33 -22 -36 -34 -2 -11 -3 -84 -2 -160 3 -119 5 -140 21 -150 12
-8 22 -8 35 0 15 10 17 30 20 146 3 134 3 135 28 149 43 22 102 97 124 155 49
133 5 297 -102 377 -52 39 -74 42 -103 13 -24 -24 -25 -30 -25 -146 l0 -120
-50 0 -50 0 0 118 c0 87 -4 123 -15 139 -23 33 -50 34 -99 2z"/>
</g>
</svg>
